<?xml version="1.0" encoding="utf-8"?>
<!-- Generator: Adobe Illustrator 25.0.0, SVG Export Plug-In . SVG Version: 6.00 Build 0)  -->
<svg version="1.1" id="katman_1" xmlns="http://www.w3.org/2000/svg" xmlns:xlink="http://www.w3.org/1999/xlink" x="0px" y="0px"
	 viewBox="0 0 1386.7 960" style="enable-background:new 0 0 1386.7 960;" xml:space="preserve">
<style type="text/css">
	.st0{fill-rule:evenodd;clip-rule:evenodd;fill:#111C4E;}
	.st1{fill:#111C4E;}
</style>
<g>
	<g>
		<path class="st0" d="M311,532V428.6h-69.6c1.2,1.3,1.6,1.7,3,3.8c5.3,8.2,4.3,19.4-2.1,26.4c-2.4,2.5-4.3,4.2-8.6,6
			c0.4,0.1,0.8,0.3,1.1,0.4l1.8,0.6c11.7,4.3,21,14.8,23.4,27.9c1.7,8.3,0.1,16.9-2.9,23.3c-1.7,3.4-3.4,5.7-5.7,8.2
			c-1.1,1.4-2,2.3-3.4,3.7c-0.9,0.9-3,2.5-4,3.1H311z"/>
		<path class="st0" d="M208.2,532h28.4c0.5-0.2,1.2-0.5,3.2-1.6c17.4-10.2,18.8-32.5,7.8-45.1c-4.7-5.5-12.2-10.5-22.7-10.4l0-11.4
			c2,0,4.7,0.4,6.3,0.7c11.8-4.6,15.6-18.6,8.3-28.5c-4-5.4-8.9-6.4-11-7.1h-20.4V532z"/>
	</g>
	<g>
		<g>
			<path class="st1" d="M432.3,532h-76.1V428.6h82c8,0,13.9,1.7,17.6,5.1c3.8,3.5,5.6,8.9,5.6,16.3v11.5c0,5.9-1.6,10.4-4.6,13.5
				c-1.4,1.4-3.2,2.6-5.4,3.5c2.2,1.1,4.1,2.5,5.7,4.3c3.3,3.7,4.9,8.7,4.9,14.9v12.6c0,7.3-2.6,12.8-7.7,16.4
				C449.3,530.3,442.1,532,432.3,532z M377.3,513.9h54.8c3.4,0,5.8-0.6,6.9-1.8c0.8-0.8,1.7-2.9,1.7-7.6v-8.2c0-4.8-1-6.9-1.8-7.8
				c-1.1-1.2-3.5-1.8-6.9-1.8h-54.8V513.9z M377.3,469.2h54.8c4.2,0,5.8-0.9,6.4-1.4c0.9-0.9,1.5-2.6,1.5-5.1v-9.9
				c0-2.5-0.5-4.3-1.3-5c-0.6-0.5-2.1-1.3-6.5-1.3h-54.8V469.2z"/>
		</g>
		<g>
			<path class="st1" d="M616.4,532h-23.3l-12.6-24.3h-64.1L503.7,532h-21.4l56.4-103.4H559L616.4,532z M525.6,490.5h45.8L548.4,447
				L525.6,490.5z"/>
		</g>
		<g>
			<path class="st1" d="M694.1,532h-21v-44.5l-53-58.9h26.6l37.6,42.9l36-42.9h26.2l-52.5,58.5V532z"/>
		</g>
		<g>
			<path class="st1" d="M891.1,532h-35.9l-0.6-0.4L792,489.5V532H771V428.6H792v40.3l58.7-40.3h32.3l-75,49.6L891.1,532z"/>
		</g>
		<g>
			<path class="st1" d="M1034.7,532h-23.3l-12.6-24.3h-64.1L922,532h-21.4l56.4-103.4h20.4L1034.7,532z M943.9,490.5h45.8L966.7,447
				L943.9,490.5z"/>
		</g>
		<g>
			<path class="st1" d="M1179.4,532h-31.5l-40.2-38.5h-26V532h-21V428.6h82c8,0,13.9,1.7,17.6,5.1c3.7,3.5,5.6,8.9,5.6,16.3v22.1
				c0,7.3-1.9,12.8-5.6,16.2c-3.8,3.5-9.5,5.1-17.6,5.1h-8.4L1179.4,532z M1081.7,476.1h54.5c4.6,0,6.2-1,6.8-1.6
				c1-1,1.6-3.2,1.6-6.2v-14.4c0-3.1-0.6-5.2-1.6-6.3c-0.7-0.7-2.5-1.6-6.8-1.6h-54.5V476.1z"/>
		</g>
	</g>
</g>
</svg>
